{"title":"[MARATHI] Labad Kuthali 2006 DVDRip x264 (TMB)","uid":8204437,"size":832054150,"categoryP":"video","categoryS":"movies","magnet":"?xt=urn:btih:929d81659e8b0543dc0c54447686e837f448e525&amp;dn=%5BMARATHI%5D+Labad+Kuthali+2006+DVDRip+x264+%28TMB%29&amp;tr=udp%3A%2F%2Ftracker.openbittorrent.com%3A80&amp;tr=udp%3A%2F%2Fopen.demonii.com%3A1337&amp;tr=udp%3A%2F%2Ftracker.coppersurfer.tk%3A6969&amp;tr=udp%3A%2F%2Fexodus.desync.com%3A6969","seeders":1,"leechers":0,"uploader":"SJonam","files":1,"time":1362087717,"description":" &lt;a href=&quot;http://desibbrg.org/images/66952052392581364616.gif&quot; rel=&quot;nofollow&quot; target=&quot;_NEW&quot;&gt;http://desibbrg.org/images/66952052392581364616.gif&lt;/a&gt; &lt;a href=&quot;\nhttp://desibbrg.org/images/73447113186593778929.png&quot; rel=&quot;nofollow&quot; target=&quot;_NEW&quot;&gt;\nhttp://desibbrg.org/images/73447113186593778929.png&lt;/a&gt; &lt;a href=&quot;\nhttp://desibbrg.org/images/65016502265330468962.png&quot; rel=&quot;nofollow&quot; target=&quot;_NEW&quot;&gt;\nhttp://desibbrg.org/images/65016502265330468962.png&lt;/a&gt; &lt;a href=&quot;\nhttp://desibbrg.org/images/19246727614371010896.png&quot; rel=&quot;nofollow&quot; target=&quot;_NEW&quot;&gt;\nhttp://desibbrg.org/images/19246727614371010896.png&lt;/a&gt; &lt;a href=&quot;\nhttp://desibbrg.org/images/43356585149548093875.png&quot; rel=&quot;nofollow&quot; target=&quot;_NEW&quot;&gt;\nhttp://desibbrg.org/images/43356585149548093875.png&lt;/a&gt; &lt;a href=&quot;\nhttp://desibbrg.org/images/56434736635812658545.png&quot; rel=&quot;nofollow&quot; target=&quot;_NEW&quot;&gt;\nhttp://desibbrg.org/images/56434736635812658545.png&lt;/a&gt;\n\nInfo - \nCast\nAshok Shinde\nNeelam Shirke\nAtul Parchure\nPushkar Shrotri\nSuhas Parajape\nNiyatee Rajwade\nArun Nalawade\n\nCrew\nDirector - Bhagwant Deshpande\n\nProducer - Tyagraj Khadilkar\n\nMedia Info - \nGeneral\nComplete name                  : Labad Kutli 2006 DVDRip x264 [TMB].mp4\nFormat                         : MPEG-4\nFormat profile                 : Base Media / Version 2\nCodec ID                       : mp42\nFile size                      : 794 MiB\nDuration                       : 2h 26mn\nOverall bit rate mode          : Variable\nOverall bit rate               : 760 Kbps\n\nVideo\nID                             : 1\nFormat                         : AVC\nFormat/Info                    : Advanced Video Codec\nFormat profile                 : &lt;a class=&quot;__cf_email__&quot; href=&quot;/cdn-cgi/l/email-protection&quot; data-cfemail=&quot;0a476b63644a4639243a&quot;&gt;[email&amp;#160;protected]&lt;/a&gt;&lt;script cf-hash='f9e31' type=&quot;text/javascript&quot;&gt;\n/* &lt;![CDATA[ */!function(){try{var t=&quot;currentScript&quot;in document?document.currentScript:function(){for(var t=document.getElementsByTagName(&quot;script&quot;),e=t.length;e--;)if(t[e].getAttribute(&quot;cf-hash&quot;))return t[e]}();if(t&amp;&amp;t.previousSibling){var e,r,n,i,c=t.previousSibling,a=c.getAttribute(&quot;data-cfemail&quot;);if(a){for(e=&quot;&quot;,r=parseInt(a.substr(0,2),16),n=2;a.length-n;n+=2)i=parseInt(a.substr(n,2),16)^r,e+=String.fromCharCode(i);e=document.createTextNode(e),c.parentNode.replaceChild(e,c)}}}catch(u){}}();/* ]]&gt; */&lt;/script&gt;\nFormat settings, CABAC         : Yes\nFormat settings, ReFrames      : 4 frames\nCodec ID                       : avc1\nCodec ID/Info                  : Advanced Video Coding\nDuration                       : 2h 26mn\nBit rate mode                  : Variable\nBit rate                       : 632 Kbps\nWidth                          : 640 pixels\nHeight                         : 358 pixels\nDisplay aspect ratio           : 16:9\nFrame rate mode                : Constant\nFrame rate                     : 29.970 fps\nColor space                    : YUV\nChroma subsampling             : 4:2:0\nBit depth                      : 8 bits\nScan type                      : Progressive\nBits/(Pixel*Frame)             : 0.092\nStream size                    : 660 MiB (83%)\nWriting library                : x264 core 120\nColor primaries                : BT.601 NTSC\nTransfer characteristics       : BT.709\nMatrix coefficients            : BT.601\n\nAudio\nID                             : 2\nFormat                         : AAC\nFormat/Info                    : Advanced Audio Codec\nFormat profile                 : LC\nCodec ID                       : 40\nDuration                       : 2h 26mn\nBit rate mode                  : Variable\nBit rate                       : 123 Kbps\nMaximum bit rate               : 151 Kbps\nChannel(s)                     : 2 channels\nChannel positions              : Front: L R\nSampling rate                  : 44.1 KHz\nCompression mode               : Lossy\nDelay relative to video        : 67ms\nStream size                    : 128 MiB (16%)\n\nRipper : SaketSaket\n\nSeeding 24x7... Extreme Seeding...\n\n\nEnjoy!\n","torrent":{"xt":"urn:btih:929d81659e8b0543dc0c54447686e837f448e525","amp;dn":"%5BMARATHI%5D+Labad+Kuthali+2006+DVDRip+x264+%28TMB%29","amp;tr":["udp%3A%2F%2Ftracker.openbittorrent.com%3A80","udp%3A%2F%2Fopen.demonii.com%3A1337","udp%3A%2F%2Ftracker.coppersurfer.tk%3A6969","udp%3A%2F%2Fexodus.desync.com%3A6969"],"infoHash":"929d81659e8b0543dc0c54447686e837f448e525","infoHashBuffer":{"type":"Buffer","data":[146,157,129,101,158,139,5,67,220,12,84,68,118,134,232,55,244,72,229,37]},"announce":[],"urlList":[]}}